<svg xmlns="http://www.w3.org/2000/svg" width="1036" height="476" viewBox="-28 -28 1036 476">
  <rect x="-28" y="-28" width="1036" height="476" fill="#0b1220"/>
  <path d="M 185 194 C 193.5 194, 241.5 202.5, 250 202.5" fill="none" stroke="#8b5cf6" stroke-width="2"/>
  <circle cx="250" cy="202.5" r="4" fill="#8b5cf6"/>
  <text x="217.5" y="190.25" text-anchor="middle" fill="#8b5cf6" font-size="10" font-family="ui-sans-serif, system-ui, sans-serif">POST</text>
  <path d="M 460 202.5 C 500 202.5, 460 124, 500 124" fill="none" stroke="#fbbf24" stroke-width="2"/>
  <circle cx="500" cy="124" r="4" fill="#fbbf24"/>
  <text x="480" y="155.25" text-anchor="middle" fill="#fbbf24" font-size="10" font-family="ui-sans-serif, system-ui, sans-serif">mode=command</text>
  <path d="M 460 230 C 500 230, 460 284, 500 284" fill="none" stroke="#34d399" stroke-width="2"/>
  <circle cx="500" cy="284" r="4" fill="#34d399"/>
  <text x="480" y="249" text-anchor="middle" fill="#34d399" font-size="10" font-family="ui-sans-serif, system-ui, sans-serif">mode=agent</text>
  <path d="M 645 124 C 645 124, 740 124, 740 124" fill="none" stroke="#38bdf8" stroke-width="2"/>
  <circle cx="740" cy="124" r="4" fill="#38bdf8"/>
  <text x="692.5" y="116" text-anchor="middle" fill="#38bdf8" font-size="10" font-family="ui-sans-serif, system-ui, sans-serif">remote exec</text>
  <path d="M 645 284 C 645 284, 740 284, 740 284" fill="none" stroke="#38bdf8" stroke-width="2"/>
  <circle cx="740" cy="284" r="4" fill="#38bdf8"/>
  <text x="692.5" y="276" text-anchor="middle" fill="#38bdf8" font-size="10" font-family="ui-sans-serif, system-ui, sans-serif">remote exec</text>
  <path d="M 885 284 C 890 284, 885 271, 890 271" fill="none" stroke="#71717a" stroke-width="2"/>
  <circle cx="890" cy="271" r="4" fill="#71717a"/>
  <text x="887.5" y="269.5" text-anchor="middle" fill="#71717a" font-size="10" font-family="ui-sans-serif, system-ui, sans-serif">/capture</text>
  <rect x="40" y="160" width="145" height="68" rx="12" fill="#8b5cf6"/>
  <text x="112.5" y="198.33333333333334" text-anchor="middle" fill="#ffffff" font-size="13" font-weight="600" font-family="ui-sans-serif, system-ui, sans-serif">Dispatch Request</text>
  <text x="112.5" y="215" text-anchor="middle" fill="#ffffff" opacity="0.8" font-size="11" font-family="ui-sans-serif, system-ui, sans-serif">command | agent</text>
  <rect x="250" y="160" width="210" height="85" rx="12" fill="#60a5fa"/>
  <text x="355" y="206.83333333333334" text-anchor="middle" fill="#ffffff" font-size="13" font-weight="600" font-family="ui-sans-serif, system-ui, sans-serif">opencode/dispatch</text>
  <text x="355" y="223.5" text-anchor="middle" fill="#ffffff" opacity="0.8" font-size="11" font-family="ui-sans-serif, system-ui, sans-serif">mode switch</text>
  <rect x="500" y="90" width="145" height="68" rx="12" fill="#fbbf24"/>
  <text x="572.5" y="128.33333333333334" text-anchor="middle" fill="#1f2937" font-size="13" font-weight="600" font-family="ui-sans-serif, system-ui, sans-serif">Job Record</text>
  <text x="572.5" y="145" text-anchor="middle" fill="#1f2937" opacity="0.8" font-size="11" font-family="ui-sans-serif, system-ui, sans-serif">queued→running→done</text>
  <rect x="500" y="250" width="145" height="68" rx="12" fill="#34d399"/>
  <text x="572.5" y="288.3333333333333" text-anchor="middle" fill="#ffffff" font-size="13" font-weight="600" font-family="ui-sans-serif, system-ui, sans-serif">Session Record</text>
  <text x="572.5" y="305" text-anchor="middle" fill="#ffffff" opacity="0.8" font-size="11" font-family="ui-sans-serif, system-ui, sans-serif">name + host</text>
  <rect x="740" y="90" width="145" height="68" rx="12" fill="#38bdf8"/>
  <text x="812.5" y="128.33333333333334" text-anchor="middle" fill="#ffffff" font-size="13" font-weight="600" font-family="ui-sans-serif, system-ui, sans-serif">Job Worker</text>
  <text x="812.5" y="145" text-anchor="middle" fill="#ffffff" opacity="0.8" font-size="11" font-family="ui-sans-serif, system-ui, sans-serif">exec runtime args</text>
  <rect x="740" y="250" width="145" height="68" rx="12" fill="#8b5cf6"/>
  <text x="812.5" y="288.3333333333333" text-anchor="middle" fill="#ffffff" font-size="13" font-weight="600" font-family="ui-sans-serif, system-ui, sans-serif">Remote tmux</text>
  <text x="812.5" y="305" text-anchor="middle" fill="#ffffff" opacity="0.8" font-size="11" font-family="ui-sans-serif, system-ui, sans-serif">send/capture/kill</text>
  <rect x="890" y="250" width="95" height="42" rx="12" fill="#71717a"/>
  <text x="937.5" y="274.6666666666667" text-anchor="middle" fill="#ffffff" font-size="11" font-weight="600" font-family="ui-sans-serif, system-ui, sans-serif">Captured Output</text>
</svg>